# xmcd CD database file
#
# Track frame offsets:
#	150
#	30265
#	60298
#	83561
#	102634
#	124573
#	147641
#	167487
#	192040
#	221683
#
# Disc length: 4440 seconds
#
# Revision: 4
# Processed by: cddbd v1.5.1PL0 Copyright (c) Steve Scherf et al.
# Submitted via: CDex 1.50
#
DISCID=7e11560a
DTITLE=Takashi - Storm Zone
DYEAR=2003
DGENRE=Jazz
TTITLE0=Southern Cross
TTITLE1=Moko-Moko
TTITLE2=New Morning
TTITLE3=The Do-Ton-Bori River
TTITLE4=Jungle Song
TTITLE5=The World In Sorrow
TTITLE6=Storm Zone
TTITLE7=The Doorway To Dreams
TTITLE8=Blues For Whales
TTITLE9=??
EXTD=YEAR: 2003
EXTT0=
EXTT1=
EXTT2=
EXTT3=
EXTT4=
EXTT5=
EXTT6=
EXTT7=
EXTT8=
EXTT9=
PLAYORDER=
